<svg viewBox="0 0 128 128" xmlns="http://www.w3.org/2000/svg">
  <path d="M44 56c12.15 0 22-9.85 22-22S56.15 12 44 12 22 21.85 22 34s9.85 22 22 22zm0 12C25.23 68 10 82.33 10 100v8c0 4.42 3.58 8 8 8h52c4.42 0 8-3.58 8-8v-8c0-17.67-15.23-32-34-32z"/>
  <path d="M88 52c10.49 0 19-8.51 19-19s-8.51-19-19-19-19 8.51-19 19 8.51 19 19 19zm0 12c-6.42 0-12.34 1.7-17.24 4.57 8.63 7.48 14.24 18.66 14.24 31.43v8c0 2.86-.74 5.55-2.03 7.88H110c4.42 0 8-3.58 8-8v-7.5C118 80.29 104.57 64 88 64z" opacity=".58"/>
</svg>
