<svg xmlns="http://www.w3.org/2000/svg" width="520" height="520" viewBox="0 0 520 520" fill="none">
  <rect width="520" height="520" rx="36" fill="#FFFFFF"/>
  <rect x="36" y="36" width="448" height="448" rx="28" fill="#F8FAFC" stroke="#CBD5E1" stroke-width="4" stroke-dasharray="12 10"/>
  <g fill="#0F172A">
    <rect x="76" y="76" width="100" height="100" rx="12"/>
    <rect x="96" y="96" width="60" height="60" rx="8" fill="#FFFFFF"/>
    <rect x="116" y="116" width="20" height="20" rx="4"/>
    <rect x="344" y="76" width="100" height="100" rx="12"/>
    <rect x="364" y="96" width="60" height="60" rx="8" fill="#FFFFFF"/>
    <rect x="384" y="116" width="20" height="20" rx="4"/>
    <rect x="76" y="344" width="100" height="100" rx="12"/>
    <rect x="96" y="364" width="60" height="60" rx="8" fill="#FFFFFF"/>
    <rect x="116" y="384" width="20" height="20" rx="4"/>
    <rect x="224" y="84" width="20" height="20" rx="4"/>
    <rect x="264" y="84" width="20" height="20" rx="4"/>
    <rect x="224" y="124" width="20" height="20" rx="4"/>
    <rect x="284" y="124" width="20" height="20" rx="4"/>
    <rect x="224" y="164" width="20" height="20" rx="4"/>
    <rect x="264" y="164" width="20" height="20" rx="4"/>
    <rect x="204" y="224" width="20" height="20" rx="4"/>
    <rect x="244" y="224" width="20" height="20" rx="4"/>
    <rect x="284" y="224" width="20" height="20" rx="4"/>
    <rect x="324" y="224" width="20" height="20" rx="4"/>
    <rect x="204" y="264" width="20" height="20" rx="4"/>
    <rect x="284" y="264" width="20" height="20" rx="4"/>
    <rect x="344" y="264" width="20" height="20" rx="4"/>
    <rect x="224" y="304" width="20" height="20" rx="4"/>
    <rect x="264" y="304" width="20" height="20" rx="4"/>
    <rect x="324" y="304" width="20" height="20" rx="4"/>
    <rect x="204" y="344" width="20" height="20" rx="4"/>
    <rect x="244" y="344" width="20" height="20" rx="4"/>
    <rect x="304" y="344" width="20" height="20" rx="4"/>
    <rect x="344" y="344" width="20" height="20" rx="4"/>
    <rect x="204" y="384" width="20" height="20" rx="4"/>
    <rect x="284" y="384" width="20" height="20" rx="4"/>
    <rect x="324" y="384" width="20" height="20" rx="4"/>
    <rect x="364" y="384" width="20" height="20" rx="4"/>
  </g>
  <circle cx="260" cy="260" r="54" fill="#7C3AED" opacity="0.12"/>
  <text x="260" y="252" text-anchor="middle" fill="#7C3AED" font-size="28" font-family="Arial, 'Microsoft YaHei', sans-serif" font-weight="700">Support QR</text>
  <text x="260" y="292" text-anchor="middle" fill="#64748B" font-size="18" font-family="Arial, 'Microsoft YaHei', sans-serif">Replace with your fixed payment code</text>
</svg>
